# xmcd CD database file generated by OrangeCD 6.3
#
# Track frame offsets:
#	150
#	26801
#	55198
#	71328
#	104177
#	116629
#	147752
#	159372
#	174102
#	188209
#	206648
#	219633
#
# Disc length: 3300 seconds
#
# Revision: 1
# Processed by: cddbd v1.5.2PL0 Copyright (c) Steve Scherf et al.
# Submitted via: OrangeCD 6.3
#
DISCID=ae0ce20c
DTITLE=Various Artist - Big Blues Collection
DYEAR=1900
DGENRE=
TTITLE0=Blues Company - Silent Night 
TTITLE1=Johnny Winter - Life Is Hard 
TTITLE2=Dr. John - I Like Ki Yoka 
TTITLE3=Albert King - I`ll Play The Blues For You 
TTITLE4=Aretha Franklin - Today I Sing The Blues 
TTITLE5=Junior Wells - I'll Take Care Of You 
TTITLE6=Sappier Wallace - Loving Sam 
TTITLE7=Big Bill Bronzy - Do Right Blues 
TTITLE8=Joe Blue - Little Joe Blue 
TTITLE9=Artie White - Warm Room 
TTITLE10=Mississippi Fred McDowell - You Gotta Move
TTITLE11=Bather Smith - Play The Blues In Paris 
EXTD=
EXTT0=
EXTT1=
EXTT2=
EXTT3=
EXTT4=
EXTT5=
EXTT6=
EXTT7=
EXTT8=
EXTT9=
EXTT10=
EXTT11=
PLAYORDER=
